<?xml version="1.0" encoding="UTF-8" standalone="no"?>
<!-- Created with Inkscape (http://www.inkscape.org/) -->

<svg
   width="80"
   height="80"
   viewBox="0 0 21.166667 21.166666"
   version="1.1"
   id="svg1"
   xml:space="preserve"
   inkscape:version="1.4.4 (dcaf3e7d9e, 2026-05-05)"
   sodipodi:docname="delete.svg"
   xmlns:inkscape="http://www.inkscape.org/namespaces/inkscape"
   xmlns:sodipodi="http://sodipodi.sourceforge.net/DTD/sodipodi-0.dtd"
   xmlns:xlink="http://www.w3.org/1999/xlink"
   xmlns="http://www.w3.org/2000/svg"
   xmlns:svg="http://www.w3.org/2000/svg"><sodipodi:namedview
     id="namedview1"
     pagecolor="#000000"
     bordercolor="#000000"
     borderopacity="0.25"
     inkscape:showpageshadow="2"
     inkscape:pageopacity="0.0"
     inkscape:pagecheckerboard="true"
     inkscape:deskcolor="#d1d1d1"
     inkscape:document-units="mm"
     inkscape:zoom="3.4696917"
     inkscape:cx="42.078667"
     inkscape:cy="66.576521"
     inkscape:window-width="1920"
     inkscape:window-height="944"
     inkscape:window-x="0"
     inkscape:window-y="0"
     inkscape:window-maximized="1"
     inkscape:current-layer="g7" /><defs
     id="defs1"><color-profile
       name="Agfa-:-Swop-Standard"
       xlink:href="file:///WINDOWS/system32/spool/drivers/color/RSWOP.icm"
       id="color-profile1" /><inkscape:path-effect
       effect="powerstroke"
       id="path-effect20"
       is_visible="true"
       lpeversion="1.3"
       scale_width="1"
       interpolator_type="CentripetalCatmullRom"
       interpolator_beta="0.75"
       start_linecap_type="peak"
       end_linecap_type="peak"
       offset_points="66.443034,1.1624209"
       linejoin_type="spiro"
       miter_limit="4"
       not_jump="true"
       sort_points="true"
       message="" /><inkscape:path-effect
       effect="simplify"
       id="path-effect19"
       is_visible="true"
       lpeversion="1.3"
       threshold="0.012"
       steps="1"
       smooth_angles="0"
       helper_size="0"
       simplify_individual_paths="false"
       simplify_just_coalesce="false"
       step="1" /><inkscape:path-effect
       effect="powerstroke"
       id="path-effect18"
       is_visible="true"
       lpeversion="1.3"
       scale_width="1"
       interpolator_type="CentripetalCatmullRom"
       interpolator_beta="0.75"
       start_linecap_type="peak"
       end_linecap_type="peak"
       offset_points="35.443661,1.1624209"
       linejoin_type="spiro"
       miter_limit="4"
       not_jump="true"
       sort_points="true"
       message="" /><inkscape:path-effect
       effect="simplify"
       id="path-effect17"
       is_visible="true"
       lpeversion="1.3"
       threshold="0.012"
       steps="1"
       smooth_angles="0"
       helper_size="0"
       simplify_individual_paths="false"
       simplify_just_coalesce="false"
       step="1" /><inkscape:path-effect
       effect="powerstroke"
       id="path-effect16"
       is_visible="true"
       lpeversion="1.3"
       scale_width="1"
       interpolator_type="CentripetalCatmullRom"
       interpolator_beta="0.75"
       start_linecap_type="peak"
       end_linecap_type="peak"
       offset_points="46.44406,1.1624209"
       linejoin_type="spiro"
       miter_limit="4"
       not_jump="true"
       sort_points="true"
       message="" /><inkscape:path-effect
       effect="simplify"
       id="path-effect15"
       is_visible="true"
       lpeversion="1.3"
       threshold="0.012"
       steps="1"
       smooth_angles="0"
       helper_size="0"
       simplify_individual_paths="false"
       simplify_just_coalesce="false"
       step="1" /><inkscape:path-effect
       effect="powerstroke"
       id="path-effect14"
       is_visible="true"
       lpeversion="1.3"
       scale_width="1"
       interpolator_type="CentripetalCatmullRom"
       interpolator_beta="0.75"
       start_linecap_type="peak"
       end_linecap_type="peak"
       offset_points="35.592547,2.3248418"
       linejoin_type="spiro"
       miter_limit="4"
       not_jump="true"
       sort_points="true"
       message="" /><inkscape:path-effect
       effect="simplify"
       id="path-effect13"
       is_visible="true"
       lpeversion="1.3"
       threshold="0.012"
       steps="1"
       smooth_angles="0"
       helper_size="0"
       simplify_individual_paths="false"
       simplify_just_coalesce="false"
       step="1" /></defs><g
     inkscape:label="Camada 1"
     inkscape:groupmode="layer"
     id="layer1"><g
       id="g4"
       transform="matrix(1.1942143,0,0,1.1942143,-62.402238,14.626522)"><g
         id="g5"
         transform="matrix(1.0772136,0,0,1.0772136,-10.020627,-7.6230251)"><g
           id="g12"
           transform="translate(4.2412682,2.8397611)"><g
             id="g13"><path
               style="fill:#ffffff;stroke:none;stroke-width:22.6772;stroke-linecap:round;stroke-linejoin:round;stroke-dasharray:none;stroke-dashoffset:0"
               d="M 209.81691,489.95708 V 625.99222"
               id="path17" /><g
               id="g6"
               transform="matrix(1.1987635,0,0,1.1987635,-26.476979,-23.009378)"><g
                 id="g7"
                 transform="translate(0,1.3986176)"><g
                   id="g8"
                   transform="matrix(0.28139833,0,0,0.28139833,23.890195,-8.0742506)"><path
                     style="fill:#ffffff;stroke:#ffffff;stroke-width:3.77953;stroke-linecap:round;stroke-dasharray:none"
                     d="m 586.70109,612.41465 c -4.00023,-1.30364 -7.30498,-5.53356 -7.94187,-10.1652 -0.29545,-2.14858 -0.84829,-5.19042 -1.22855,-6.75965 -0.38025,-1.56922 -1.46126,-8.3556 -2.40223,-15.08085 -0.94097,-6.72524 -2.06259,-14.06187 -2.49249,-16.30362 -3.20411,-16.70798 -15.56125,-119.48626 -16.41669,-136.54284 l -0.26574,-5.29867 84.37124,-0.21005 c 46.40419,-0.11552 84.74895,-0.0663 85.21058,0.10928 1.01357,0.3856 0.22857,14.31917 -1.6131,28.6321 -0.69229,5.3802 -2.0245,15.8349 -2.96049,23.23267 -0.936,7.39777 -2.57083,20.05345 -3.63298,28.12374 -1.06215,8.0703 -2.83855,21.64306 -3.94755,30.16171 -1.109,8.51864 -2.5693,19.52358 -3.2451,24.45543 -1.49275,10.89364 -5.35453,40.31686 -5.88806,44.86151 -0.53556,4.56207 -3.08168,8.37989 -6.67468,10.00848 -2.74191,1.24281 -8.18032,1.39071 -55.61825,1.51258 -35.47198,0.0911 -53.44948,-0.14854 -55.25404,-0.73662 z m 22.68469,-30.57932 c 2.17227,-1.94092 2.61616,-3.0628 3.30611,-8.35561 0.43831,-3.36251 0.60082,-7.58099 0.36113,-9.37439 -0.23969,-1.7934 -0.98565,-14.44909 -1.65769,-28.12375 -2.98467,-60.73236 -4.82068,-87.70809 -6.1713,-90.67239 -1.14833,-2.5203 -6.28313,-5.52058 -9.43763,-5.51443 -3.88358,0.008 -8.05503,1.50959 -10.02957,3.61139 -1.42096,1.51254 -1.86307,2.92644 -1.84838,5.9113 0.0245,4.98524 2.51953,41.69301 2.98162,43.86712 0.19059,0.8967 0.92513,9.33383 1.63232,18.74917 4.35373,57.96438 5.5487,67.26366 9.03484,70.30937 3.11713,2.72332 8.53322,2.5366 11.82855,-0.40778 z m 75.49241,-0.32203 c 1.06161,-0.99734 2.27419,-3.12115 2.6946,-4.71957 0.92699,-3.52449 2.53932,-21.55588 6.12768,-68.52831 1.11315,-14.57136 2.57967,-32.72952 3.25894,-40.35146 2.01265,-22.58363 1.79361,-24.07077 -3.94665,-26.79471 -5.35678,-2.54195 -11.62432,-1.4098 -14.99942,2.70946 -2.98011,3.63718 -3.34518,6.51423 -4.63018,36.48919 -0.707,16.49201 -1.63468,34.75429 -2.06153,40.58283 -0.87868,11.99833 -1.58395,29.6016 -1.86626,46.58107 -0.17257,10.37902 -0.0358,11.70083 1.37239,13.25902 3.28656,3.63678 10.57497,4.0375 14.05043,0.77248 z m -37.8098,-0.50323 c 1.31428,-1.37181 2.47153,-3.84108 2.96084,-6.31765 0.79777,-4.03781 2.56185,-81.57012 2.51297,-110.44678 -0.0218,-12.90066 -0.24368,-15.56118 -1.53458,-18.40341 -2.67319,-5.88573 -9.58957,-7.66235 -16.42019,-4.21786 -5.73533,2.89216 -5.79139,3.31537 -4.86447,36.725 0.43784,15.7813 0.83127,40.43189 0.87428,54.77908 0.043,14.34718 0.33863,30.62431 0.65692,36.17138 0.55535,9.67866 0.66962,10.16378 2.83216,12.02392 1.75482,1.50943 3.20174,1.93834 6.53898,1.93834 3.61574,0 4.62273,-0.35198 6.44309,-2.25202 z"
                     id="path3"
                     transform="matrix(0.17157139,0,0,0.17157139,66.774114,13.243916)" /><path
                     style="fill:#ffffff;stroke:#ffffff;stroke-width:0.528611;stroke-linecap:round;stroke-dasharray:none"
                     d="m 159.94992,82.596605 c -0.12184,-0.121838 0.0246,-2.231806 0.20256,-2.918356 0.18279,-0.705252 0.70197,-1.398406 1.28031,-1.709329 0.35934,-0.19319 0.91495,-0.250748 2.82497,-0.292655 1.80686,-0.03964 2.43157,-0.100215 2.60226,-0.252323 0.1647,-0.146771 0.24573,-0.562965 0.3038,-1.560368 0.12361,-2.12312 0.57365,-3.027387 1.84924,-3.715703 0.55247,-0.298115 0.64926,-0.301879 7.76232,-0.301879 h 7.20289 l 0.62316,0.349655 c 1.19449,0.670218 1.68455,1.832472 1.68455,3.995158 0,1.468624 -0.0173,1.458731 2.56247,1.462787 1.1676,0.0018 2.36978,0.06059 2.67153,0.130576 1.38376,0.320933 1.90919,1.341526 2.07321,4.026975 l 0.0534,0.874135 H 176.8426 c -9.2422,0 -16.8439,-0.0399 -16.89267,-0.08867 z m 23.68226,-5.131156 c 0.30733,-0.152718 0.35059,-0.273386 0.38626,-1.077513 0.0508,-1.144464 -0.2201,-1.982768 -0.6825,-2.112138 -0.18519,-0.05181 -3.21897,-0.100478 -6.74174,-0.108145 l -6.40503,-0.01395 -0.3433,0.343297 c -0.31611,0.316114 -0.3433,0.44809 -0.3433,1.666686 0,0.927599 0.0523,1.344625 0.17483,1.394398 0.0962,0.03905 3.19745,0.07288 6.89176,0.07517 5.04042,0.0031 6.80331,-0.03876 7.06302,-0.167814 z"
                     id="path4" /></g></g></g></g></g></g></g><path
       style="fill:none;fill-opacity:1;stroke:none;stroke-width:10.6418;stroke-linecap:round;stroke-linejoin:round;stroke-dasharray:none;stroke-opacity:1"
       d="m -233.25971,-30.014894 c -3.04178,-0.98751 -4.57577,-3.55889 -3.87234,-6.49112 0.29386,-1.22495 1.67898,-2.87302 20.32639,-24.1851 11.00607,-12.57882 19.94903,-22.93258 19.87325,-23.00836 -0.0758,-0.0758 -6.10051,0.87884 -13.38828,2.12138 -11.98037,2.0426 -13.35714,2.22997 -14.36298,1.9547 -1.29962,-0.35566 -2.92117,-1.72726 -3.51065,-2.9695 -0.45715,-0.96336 -0.54803,-3.12065 -0.17302,-4.10701 0.33069,-0.86977 1.75375,-2.44913 2.60198,-2.88777 1.09006,-0.56369 43.08475,-7.67497 44.17048,-7.47973 1.37647,0.24753 2.7566,1.1307 3.54519,2.26863 0.58332,0.84174 0.72807,1.36742 0.80702,2.9308 0.14315,2.8348 -1.22712,41.07623 -1.52619,42.59298 -1.01805,5.16298 -8.13376,5.71808 -10.1903,0.79495 -0.38317,-0.91728 -0.3846,-1.93788 -0.0176,-12.52832 0.21975,-6.34133 0.46306,-12.44146 0.54067,-13.55584 0.0787,-1.12959 0.0403,-1.98688 -0.0868,-1.93737 -0.12537,0.0488 -9.19093,10.32326 -20.1457,22.83207 -14.44581,16.49508 -20.17654,22.86668 -20.85971,23.19246 -1.13081,0.53925 -2.84133,0.7511 -3.7314,0.46215 z"
       id="path7" /><path
       style="fill:none;fill-opacity:1;stroke:none;stroke-width:21.2836;stroke-linecap:round;stroke-linejoin:round;stroke-dasharray:none;stroke-opacity:1"
       d="m -272.91017,92.409081 c -3.58907,-0.683654 -6.26143,-2.720464 -7.94736,-6.057283 -1.02441,-2.027542 -1.09182,-6.818307 -0.12781,-9.083302 0.38916,-0.91435 19.1066,-22.680443 41.59431,-48.369092 22.4877,-25.6886496 40.82615,-46.761199 40.75211,-46.827887 -0.074,-0.06669 -12.45629,1.977403 -27.5161,4.542425 -30.31171,5.1627644 -29.87704,5.1368984 -33.83936,2.013556 -5.97462,-4.709565 -5.26646,-14.394215 1.31452,-17.976935 1.49613,-0.814501 7.37199,-2.026459 21.9339,-4.524102 10.93967,-1.876359 29.5384,-5.086014 41.33052,-7.132566 25.29744,-4.390435 28.65581,-4.622149 32.07614,-2.213105 1.21029,0.85244 2.76596,2.596073 3.45705,3.874736 l 1.25652,2.324841 -0.33554,12.657473 c -0.18454,6.961608 -0.88068,27.1915414 -1.54697,44.955404 -1.29392,34.497274 -1.31269,34.671084 -4.06313,37.619707 -2.20013,2.35867 -4.85732,3.311091 -8.64121,3.097278 -4.61052,-0.260517 -7.1023,-1.869043 -9.04433,-5.838401 l -1.40893,-2.879749 1.02794,-27.757017 c 0.56537,-15.2663566 0.96208,-27.8358086 0.88158,-27.9321146 -0.19873,-0.237733 1.21301,-1.837335 -42.7866,48.4801466 -40.40403,46.205623 -40.69802,46.513545 -45.00914,47.14383 -0.85245,0.124627 -2.36359,0.07159 -3.35811,-0.117843 z"
       id="path8" /></g></svg>
