<?xml version="1.0" encoding="UTF-8" standalone="no"?>
<!-- Created with Inkscape (http://www.inkscape.org/) -->

<svg
   width="80"
   height="80"
   viewBox="0 0 21.166666 21.166667"
   version="1.1"
   id="svg1"
   xml:space="preserve"
   inkscape:version="1.4.4 (dcaf3e7d9e, 2026-05-05)"
   sodipodi:docname="export.svg"
   xmlns:inkscape="http://www.inkscape.org/namespaces/inkscape"
   xmlns:sodipodi="http://sodipodi.sourceforge.net/DTD/sodipodi-0.dtd"
   xmlns:xlink="http://www.w3.org/1999/xlink"
   xmlns="http://www.w3.org/2000/svg"
   xmlns:svg="http://www.w3.org/2000/svg"><sodipodi:namedview
     id="namedview1"
     pagecolor="#000000"
     bordercolor="#000000"
     borderopacity="0.25"
     inkscape:showpageshadow="2"
     inkscape:pageopacity="0.0"
     inkscape:pagecheckerboard="true"
     inkscape:deskcolor="#d1d1d1"
     inkscape:document-units="mm"
     inkscape:zoom="5.6568544"
     inkscape:cx="24.748737"
     inkscape:cy="26.339727"
     inkscape:window-width="1920"
     inkscape:window-height="944"
     inkscape:window-x="0"
     inkscape:window-y="0"
     inkscape:window-maximized="1"
     inkscape:current-layer="g8"
     showgrid="false" /><defs
     id="defs1"><inkscape:path-effect
       effect="fillet_chamfer"
       id="path-effect2"
       is_visible="true"
       lpeversion="1"
       nodesatellites_param="F,0,0,1,0,0,0,1 @ F,0,0,1,0,0.13357095,0,1 @ F,0,0,1,0,0,0,1 @ F,0,0,1,0,0,0,1"
       radius="0"
       unit="px"
       method="auto"
       mode="F"
       chamfer_steps="1"
       flexible="false"
       use_knot_distance="true"
       apply_no_radius="true"
       apply_with_radius="true"
       only_selected="false"
       hide_knots="false" /><color-profile
       name="Agfa-:-Swop-Standard"
       xlink:href="file:///WINDOWS/system32/spool/drivers/color/RSWOP.icm"
       id="color-profile1" /><inkscape:path-effect
       effect="powerstroke"
       id="path-effect20"
       is_visible="true"
       lpeversion="1.3"
       scale_width="1"
       interpolator_type="CentripetalCatmullRom"
       interpolator_beta="0.75"
       start_linecap_type="peak"
       end_linecap_type="peak"
       offset_points="66.443034,1.1624209"
       linejoin_type="spiro"
       miter_limit="4"
       not_jump="true"
       sort_points="true"
       message="" /><inkscape:path-effect
       effect="simplify"
       id="path-effect19"
       is_visible="true"
       lpeversion="1.3"
       threshold="0.012"
       steps="1"
       smooth_angles="0"
       helper_size="0"
       simplify_individual_paths="false"
       simplify_just_coalesce="false"
       step="1" /><inkscape:path-effect
       effect="powerstroke"
       id="path-effect18"
       is_visible="true"
       lpeversion="1.3"
       scale_width="1"
       interpolator_type="CentripetalCatmullRom"
       interpolator_beta="0.75"
       start_linecap_type="peak"
       end_linecap_type="peak"
       offset_points="35.443661,1.1624209"
       linejoin_type="spiro"
       miter_limit="4"
       not_jump="true"
       sort_points="true"
       message="" /><inkscape:path-effect
       effect="simplify"
       id="path-effect17"
       is_visible="true"
       lpeversion="1.3"
       threshold="0.012"
       steps="1"
       smooth_angles="0"
       helper_size="0"
       simplify_individual_paths="false"
       simplify_just_coalesce="false"
       step="1" /><inkscape:path-effect
       effect="powerstroke"
       id="path-effect16"
       is_visible="true"
       lpeversion="1.3"
       scale_width="1"
       interpolator_type="CentripetalCatmullRom"
       interpolator_beta="0.75"
       start_linecap_type="peak"
       end_linecap_type="peak"
       offset_points="46.44406,1.1624209"
       linejoin_type="spiro"
       miter_limit="4"
       not_jump="true"
       sort_points="true"
       message="" /><inkscape:path-effect
       effect="simplify"
       id="path-effect15"
       is_visible="true"
       lpeversion="1.3"
       threshold="0.012"
       steps="1"
       smooth_angles="0"
       helper_size="0"
       simplify_individual_paths="false"
       simplify_just_coalesce="false"
       step="1" /><inkscape:path-effect
       effect="powerstroke"
       id="path-effect14"
       is_visible="true"
       lpeversion="1.3"
       scale_width="1"
       interpolator_type="CentripetalCatmullRom"
       interpolator_beta="0.75"
       start_linecap_type="peak"
       end_linecap_type="peak"
       offset_points="35.592547,2.3248418"
       linejoin_type="spiro"
       miter_limit="4"
       not_jump="true"
       sort_points="true"
       message="" /><inkscape:path-effect
       effect="simplify"
       id="path-effect13"
       is_visible="true"
       lpeversion="1.3"
       threshold="0.012"
       steps="1"
       smooth_angles="0"
       helper_size="0"
       simplify_individual_paths="false"
       simplify_just_coalesce="false"
       step="1" /></defs><g
     inkscape:label="Camada 1"
     inkscape:groupmode="layer"
     id="layer1"><g
       id="g4"
       transform="matrix(1.1942143,0,0,1.1942143,-62.402238,14.626522)"><g
         id="g5"
         transform="matrix(1.0772136,0,0,1.0772136,-10.020627,-7.6230251)"><g
           id="g12"
           transform="translate(4.2412682,2.8397611)"><g
             id="g13"><path
               style="fill:#ffffff;stroke:none;stroke-width:22.6772;stroke-linecap:round;stroke-linejoin:round;stroke-dasharray:none;stroke-dashoffset:0"
               d="M 209.81691,489.95708 V 625.99222"
               id="path17" /><g
               id="g19"
               transform="matrix(1.5400257,0,0,1.5400257,-77.92686,-36.431479)"><g
                 id="g2"
                 transform="matrix(0.94461279,0,0,0.94461279,5.0299442,1.3525893)"
                 style="stroke-width:1.43261973;stroke-dasharray:none"><g
                   id="g6"
                   transform="translate(-0.54985008,0.54985008)"><g
                     id="g7"
                     transform="matrix(1.1340241,0,0,1.1340241,-12.230257,-3.195999)"><g
                       id="g8"><path
                         id="rect2"
                         style="fill:none;stroke:#ffffff;stroke-width:1.13089705;stroke-linecap:round;stroke-linejoin:round;stroke-dasharray:none"
                         d="m 89.665359,19.708795 h 5.363373 v 7.525604 H 92.80199 L 92.76147,22.76437 89.665361,22.74674 Z"
                         sodipodi:nodetypes="ccccccc" /><rect
                         style="fill:none;stroke:#ffffff;stroke-width:1.13089705;stroke-linecap:round;stroke-linejoin:round;stroke-dasharray:none"
                         id="rect2-2"
                         width="5.433373"
                         height="5.1944647"
                         x="87.176147"
                         y="22.768999" /></g></g></g></g></g></g></g></g></g><path
       style="fill:none;fill-opacity:1;stroke:none;stroke-width:10.6418;stroke-linecap:round;stroke-linejoin:round;stroke-dasharray:none;stroke-opacity:1"
       d="m -233.25971,-30.014894 c -3.04178,-0.98751 -4.57577,-3.55889 -3.87234,-6.49112 0.29386,-1.22495 1.67898,-2.87302 20.32639,-24.1851 11.00607,-12.57882 19.94903,-22.93258 19.87325,-23.00836 -0.0758,-0.0758 -6.10051,0.87884 -13.38828,2.12138 -11.98037,2.0426 -13.35714,2.22997 -14.36298,1.9547 -1.29962,-0.35566 -2.92117,-1.72726 -3.51065,-2.9695 -0.45715,-0.96336 -0.54803,-3.12065 -0.17302,-4.10701 0.33069,-0.86977 1.75375,-2.44913 2.60198,-2.88777 1.09006,-0.56369 43.08475,-7.67497 44.17048,-7.47973 1.37647,0.24753 2.7566,1.1307 3.54519,2.26863 0.58332,0.84174 0.72807,1.36742 0.80702,2.9308 0.14315,2.8348 -1.22712,41.07623 -1.52619,42.59298 -1.01805,5.16298 -8.13376,5.71808 -10.1903,0.79495 -0.38317,-0.91728 -0.3846,-1.93788 -0.0176,-12.52832 0.21975,-6.34133 0.46306,-12.44146 0.54067,-13.55584 0.0787,-1.12959 0.0403,-1.98688 -0.0868,-1.93737 -0.12537,0.0488 -9.19093,10.32326 -20.1457,22.83207 -14.44581,16.49508 -20.17654,22.86668 -20.85971,23.19246 -1.13081,0.53925 -2.84133,0.7511 -3.7314,0.46215 z"
       id="path7" /><path
       style="fill:none;fill-opacity:1;stroke:none;stroke-width:21.2836;stroke-linecap:round;stroke-linejoin:round;stroke-dasharray:none;stroke-opacity:1"
       d="m -272.91017,92.409081 c -3.58907,-0.683654 -6.26143,-2.720464 -7.94736,-6.057283 -1.02441,-2.027542 -1.09182,-6.818307 -0.12781,-9.083302 0.38916,-0.91435 19.1066,-22.680443 41.59431,-48.369092 22.4877,-25.6886496 40.82615,-46.761199 40.75211,-46.827887 -0.074,-0.06669 -12.45629,1.977403 -27.5161,4.542425 -30.31171,5.1627644 -29.87704,5.1368984 -33.83936,2.013556 -5.97462,-4.709565 -5.26646,-14.394215 1.31452,-17.976935 1.49613,-0.814501 7.37199,-2.026459 21.9339,-4.524102 10.93967,-1.876359 29.5384,-5.086014 41.33052,-7.132566 25.29744,-4.390435 28.65581,-4.622149 32.07614,-2.213105 1.21029,0.85244 2.76596,2.596073 3.45705,3.874736 l 1.25652,2.324841 -0.33554,12.657473 c -0.18454,6.961608 -0.88068,27.1915414 -1.54697,44.955404 -1.29392,34.497274 -1.31269,34.671084 -4.06313,37.619707 -2.20013,2.35867 -4.85732,3.311091 -8.64121,3.097278 -4.61052,-0.260517 -7.1023,-1.869043 -9.04433,-5.838401 l -1.40893,-2.879749 1.02794,-27.757017 c 0.56537,-15.2663566 0.96208,-27.8358086 0.88158,-27.9321146 -0.19873,-0.237733 1.21301,-1.837335 -42.7866,48.4801466 -40.40403,46.205623 -40.69802,46.513545 -45.00914,47.14383 -0.85245,0.124627 -2.36359,0.07159 -3.35811,-0.117843 z"
       id="path8" /></g></svg>
