<?xml version="1.0" encoding="UTF-8" standalone="no"?>
<!-- Created with Inkscape (http://www.inkscape.org/) -->

<svg
   width="80"
   height="80"
   viewBox="0 0 21.166666 21.166667"
   version="1.1"
   id="svg1"
   xml:space="preserve"
   inkscape:version="1.4.3 (fcd0343856, 2026-01-01)"
   sodipodi:docname="open.svg"
   xmlns:inkscape="http://www.inkscape.org/namespaces/inkscape"
   xmlns:sodipodi="http://sodipodi.sourceforge.net/DTD/sodipodi-0.dtd"
   xmlns="http://www.w3.org/2000/svg"
   xmlns:svg="http://www.w3.org/2000/svg"><sodipodi:namedview
     id="namedview1"
     pagecolor="#717171"
     bordercolor="#000000"
     borderopacity="0.25"
     inkscape:showpageshadow="2"
     inkscape:pageopacity="0.0"
     inkscape:pagecheckerboard="true"
     inkscape:deskcolor="#ffffff"
     inkscape:document-units="mm"
     inkscape:zoom="8.1941058"
     inkscape:cx="39.357559"
     inkscape:cy="23.980652"
     inkscape:window-width="1920"
     inkscape:window-height="945"
     inkscape:window-x="0"
     inkscape:window-y="0"
     inkscape:window-maximized="1"
     inkscape:current-layer="g2" /><defs
     id="defs1"><clipPath
       clipPathUnits="userSpaceOnUse"
       id="clipPath1"><path
         style="fill:none;stroke:#ffffff;stroke-width:0.311418;stroke-linecap:round;stroke-linejoin:round;stroke-dasharray:none"
         d="M 47.173222,9.7033801 30.392863,9.6559782 28.496777,11.220249 c 0,0 -0.900641,2.180499 -0.995445,2.417509 -0.0948,0.237011 -1.279858,3.649965 -1.422065,4.123987 -0.142206,0.474021 -1.753879,2.938933 -1.753879,2.938933 L 22.571509,2.7352647 c 0,0 2.89153,-7.3473325 5.830463,-6.825909 2.938933,0.5214235 20.572532,2.4175095 20.572532,2.4175095 0,0 0.805836,4.8350188 0.853238,5.7356597 0.0474,0.9006407 -2.65452,5.6408552 -2.65452,5.6408552 z"
         id="path2" /></clipPath></defs><g
     inkscape:label="Camada 1"
     inkscape:groupmode="layer"
     id="layer1"><g
       id="g4"
       transform="matrix(0.96333626,0,0,0.96333626,-21.880945,0.33319367)"><g
         id="g3"><g
           id="g2"
           transform="matrix(0.89439037,0,0,0.89439037,2.169812,1.305529)"><g
             id="g1"><path
               id="rect1-7"
               style="fill:none;stroke:#ffffff;stroke-width:1.69847;stroke-linecap:round;stroke-linejoin:round"
               d="m 31.032847,10.489382 h 14.43127 c 1.392257,0 2.384521,1.366282 1.409307,2.536603 l -2.80306,3.363854 c -1.568976,2.251722 -2.762343,2.576503 -4.403564,2.641022 H 25.516792 c -1.392257,0 1.899165,-6.004876 1.899165,-6.004876 0.611502,-1.405278 2.224633,-2.536603 3.61689,-2.536603 z"
               sodipodi:nodetypes="ssscccss" /><path
               style="fill:#ffffff;stroke:#ffffff;stroke-width:0.388406;stroke-linecap:round;stroke-linejoin:round;stroke-dasharray:none"
               d="m 24.191932,17.763373 -0.01791,-5.691277 c -0.01028,-3.2679957 0.0033,-5.9423328 0.03187,-6.280903 0.08124,-0.9624286 0.359479,-1.608896 0.98981,-2.2997559 0.386755,-0.4238935 0.940019,-0.7941799 1.514272,-1.0134666 l 0.429262,-0.1639197 h 5.209738 5.209738 l 0.03712,-0.357746 c 0.142042,-1.36890828 0.988055,-1.89412189 2.335222,-1.89412189 h 1.957936 c 2.899577,0 2.305005,3.64836579 2.306074,5.87049299 l 9.22e-4,4.0161214 -0.781742,-0.01467 -1.34999,-0.01467 -0.01437,-1.046738 -0.01437,-2.0007271 h -2.120419 -2.68867 l -3.33882,-2.0421802 -4.032738,-0.00104 -3.448966,-0.00104 -0.03484,2.1104923 c -0.04821,1.705017 -0.03768,6.8691257 0.01489,7.9992087 l -0.621707,2.69021 c -0.108015,0.239824 0.15426,2.103074 -0.542254,2.083435 -0.962909,-0.02715 -1.013678,-0.799789 -1.030057,-1.947705 z"
               id="path1"
               sodipodi:nodetypes="cccsscccsssscccccccccccccscc" /></g></g></g></g></g></svg>
