<?xml version="1.0" encoding="UTF-8" standalone="no"?>
<!-- Created with Inkscape (http://www.inkscape.org/) -->

<svg
   width="80"
   height="80"
   viewBox="0 0 21.166667 21.166666"
   version="1.1"
   id="svg1"
   xml:space="preserve"
   inkscape:version="1.4.4 (dcaf3e7d9e, 2026-05-05)"
   sodipodi:docname="redo.svg"
   xmlns:inkscape="http://www.inkscape.org/namespaces/inkscape"
   xmlns:sodipodi="http://sodipodi.sourceforge.net/DTD/sodipodi-0.dtd"
   xmlns:xlink="http://www.w3.org/1999/xlink"
   xmlns="http://www.w3.org/2000/svg"
   xmlns:svg="http://www.w3.org/2000/svg"><sodipodi:namedview
     id="namedview1"
     pagecolor="#000000"
     bordercolor="#000000"
     borderopacity="0.25"
     inkscape:showpageshadow="2"
     inkscape:pageopacity="0.0"
     inkscape:pagecheckerboard="true"
     inkscape:deskcolor="#d1d1d1"
     inkscape:document-units="mm"
     inkscape:zoom="3.4696917"
     inkscape:cx="42.366877"
     inkscape:cy="50.148548"
     inkscape:window-width="1920"
     inkscape:window-height="944"
     inkscape:window-x="0"
     inkscape:window-y="0"
     inkscape:window-maximized="1"
     inkscape:current-layer="g6" /><defs
     id="defs1"><color-profile
       name="Agfa-:-Swop-Standard"
       xlink:href="file:///WINDOWS/system32/spool/drivers/color/RSWOP.icm"
       id="color-profile1" /><inkscape:path-effect
       effect="powerstroke"
       id="path-effect20"
       is_visible="true"
       lpeversion="1.3"
       scale_width="1"
       interpolator_type="CentripetalCatmullRom"
       interpolator_beta="0.75"
       start_linecap_type="peak"
       end_linecap_type="peak"
       offset_points="66.443034,1.1624209"
       linejoin_type="spiro"
       miter_limit="4"
       not_jump="true"
       sort_points="true"
       message="" /><inkscape:path-effect
       effect="simplify"
       id="path-effect19"
       is_visible="true"
       lpeversion="1.3"
       threshold="0.012"
       steps="1"
       smooth_angles="0"
       helper_size="0"
       simplify_individual_paths="false"
       simplify_just_coalesce="false"
       step="1" /><inkscape:path-effect
       effect="powerstroke"
       id="path-effect18"
       is_visible="true"
       lpeversion="1.3"
       scale_width="1"
       interpolator_type="CentripetalCatmullRom"
       interpolator_beta="0.75"
       start_linecap_type="peak"
       end_linecap_type="peak"
       offset_points="35.443661,1.1624209"
       linejoin_type="spiro"
       miter_limit="4"
       not_jump="true"
       sort_points="true"
       message="" /><inkscape:path-effect
       effect="simplify"
       id="path-effect17"
       is_visible="true"
       lpeversion="1.3"
       threshold="0.012"
       steps="1"
       smooth_angles="0"
       helper_size="0"
       simplify_individual_paths="false"
       simplify_just_coalesce="false"
       step="1" /><inkscape:path-effect
       effect="powerstroke"
       id="path-effect16"
       is_visible="true"
       lpeversion="1.3"
       scale_width="1"
       interpolator_type="CentripetalCatmullRom"
       interpolator_beta="0.75"
       start_linecap_type="peak"
       end_linecap_type="peak"
       offset_points="46.44406,1.1624209"
       linejoin_type="spiro"
       miter_limit="4"
       not_jump="true"
       sort_points="true"
       message="" /><inkscape:path-effect
       effect="simplify"
       id="path-effect15"
       is_visible="true"
       lpeversion="1.3"
       threshold="0.012"
       steps="1"
       smooth_angles="0"
       helper_size="0"
       simplify_individual_paths="false"
       simplify_just_coalesce="false"
       step="1" /><inkscape:path-effect
       effect="powerstroke"
       id="path-effect14"
       is_visible="true"
       lpeversion="1.3"
       scale_width="1"
       interpolator_type="CentripetalCatmullRom"
       interpolator_beta="0.75"
       start_linecap_type="peak"
       end_linecap_type="peak"
       offset_points="35.592547,2.3248418"
       linejoin_type="spiro"
       miter_limit="4"
       not_jump="true"
       sort_points="true"
       message="" /><inkscape:path-effect
       effect="simplify"
       id="path-effect13"
       is_visible="true"
       lpeversion="1.3"
       threshold="0.012"
       steps="1"
       smooth_angles="0"
       helper_size="0"
       simplify_individual_paths="false"
       simplify_just_coalesce="false"
       step="1" /></defs><g
     inkscape:label="Camada 1"
     inkscape:groupmode="layer"
     id="layer1"><g
       id="g4"
       transform="matrix(1.1942143,0,0,1.1942143,-62.402238,14.626522)"><g
         id="g5"
         transform="matrix(1.0772136,0,0,1.0772136,-10.020627,-7.6230251)"><g
           id="g12"
           transform="translate(4.2412682,2.8397611)"><g
             id="g13"><path
               style="fill:#ffffff;stroke:none;stroke-width:22.6772;stroke-linecap:round;stroke-linejoin:round;stroke-dasharray:none;stroke-dashoffset:0"
               d="M 209.81691,489.95708 V 625.99222"
               id="path17" /><g
               id="g6"
               transform="matrix(1.1987635,0,0,1.1987635,-26.476979,-23.009378)"><path
                 d="m 75.781178,19.48603 c -0.966164,-0.583556 -1.258143,-0.663328 -1.555564,-0.424997 -0.310155,0.248528 -0.357033,0.645871 -0.110636,0.937633 0.141106,0.167078 2.843862,1.85609 3.154976,1.971608 0.34739,0.128991 0.492636,0.07663 0.75239,-0.27121 0.337747,-0.452292 1.844096,-2.964642 1.862916,-3.107045 0.04544,-0.34363 -0.163607,-0.641693 -0.50942,-0.726452 -0.404452,-0.09913 -0.54146,0.01237 -1.165347,0.948381 -0.255238,0.382932 -0.472123,0.712846 -0.622838,0.69562 -0.162551,-0.418507 -0.413273,-1.264723 -0.631399,-1.698531 -0.230085,-0.457578 -0.687165,-1.048353 -1.12964,-1.460043 -0.632179,-0.588198 -1.523112,-1.030846 -2.453899,-1.21918 -0.492896,-0.09973 -1.42116,-0.09834 -1.896394,0.0028 -1.051915,0.223966 -1.854,0.656589 -2.597069,1.40079 -0.730506,0.731617 -1.202828,1.599133 -1.416123,2.601017 -0.0802,0.37669 -0.0802,1.560874 0,1.937563 0.33184,1.558681 1.334868,2.869696 2.733247,3.572503 0.61138,0.307274 1.258507,0.474775 1.95552,0.506168 0.401423,0.01808 0.417974,0.01635 0.522044,-0.05461 0.201534,-0.137406 0.268431,-0.383652 0.154889,-0.570149 -0.102953,-0.169109 -0.180863,-0.197838 -0.700892,-0.258459 -1.02215,-0.119154 -1.657942,-0.377132 -2.357361,-0.956524 -0.612284,-0.507209 -1.06092,-1.167538 -1.319502,-1.942107 -0.152326,-0.456292 -0.177156,-0.675162 -0.160859,-1.417875 0.01295,-0.591001 0.02145,-0.67146 0.09711,-0.924156 0.418666,-1.397719 1.438973,-2.468915 2.750957,-2.888175 0.497001,-0.158824 0.693854,-0.187358 1.289991,-0.186993 0.575865,3.46e-4 0.83934,0.03874 1.289745,0.18794 0.943047,0.312381 1.7802,0.994772 2.296933,1.872314 0.251681,0.42742 0.497001,1.115121 0.434881,1.677611 z"
                 style="fill:#ffffff;stroke:#ffffff;stroke-width:0.87249;stroke-linecap:round;stroke-dasharray:none"
                 id="path1"
                 sodipodi:nodetypes="ssssccsscssssssssssssssssscsccs" /></g></g></g></g></g><path
       style="fill:none;fill-opacity:1;stroke:none;stroke-width:10.6418;stroke-linecap:round;stroke-linejoin:round;stroke-dasharray:none;stroke-opacity:1"
       d="m -233.25971,-30.014894 c -3.04178,-0.98751 -4.57577,-3.55889 -3.87234,-6.49112 0.29386,-1.22495 1.67898,-2.87302 20.32639,-24.1851 11.00607,-12.57882 19.94903,-22.93258 19.87325,-23.00836 -0.0758,-0.0758 -6.10051,0.87884 -13.38828,2.12138 -11.98037,2.0426 -13.35714,2.22997 -14.36298,1.9547 -1.29962,-0.35566 -2.92117,-1.72726 -3.51065,-2.9695 -0.45715,-0.96336 -0.54803,-3.12065 -0.17302,-4.10701 0.33069,-0.86977 1.75375,-2.44913 2.60198,-2.88777 1.09006,-0.56369 43.08475,-7.67497 44.17048,-7.47973 1.37647,0.24753 2.7566,1.1307 3.54519,2.26863 0.58332,0.84174 0.72807,1.36742 0.80702,2.9308 0.14315,2.8348 -1.22712,41.07623 -1.52619,42.59298 -1.01805,5.16298 -8.13376,5.71808 -10.1903,0.79495 -0.38317,-0.91728 -0.3846,-1.93788 -0.0176,-12.52832 0.21975,-6.34133 0.46306,-12.44146 0.54067,-13.55584 0.0787,-1.12959 0.0403,-1.98688 -0.0868,-1.93737 -0.12537,0.0488 -9.19093,10.32326 -20.1457,22.83207 -14.44581,16.49508 -20.17654,22.86668 -20.85971,23.19246 -1.13081,0.53925 -2.84133,0.7511 -3.7314,0.46215 z"
       id="path7" /><path
       style="fill:none;fill-opacity:1;stroke:none;stroke-width:21.2836;stroke-linecap:round;stroke-linejoin:round;stroke-dasharray:none;stroke-opacity:1"
       d="m -272.91017,92.409081 c -3.58907,-0.683654 -6.26143,-2.720464 -7.94736,-6.057283 -1.02441,-2.027542 -1.09182,-6.818307 -0.12781,-9.083302 0.38916,-0.91435 19.1066,-22.680443 41.59431,-48.369092 22.4877,-25.6886496 40.82615,-46.761199 40.75211,-46.827887 -0.074,-0.06669 -12.45629,1.977403 -27.5161,4.542425 -30.31171,5.1627644 -29.87704,5.1368984 -33.83936,2.013556 -5.97462,-4.709565 -5.26646,-14.394215 1.31452,-17.976935 1.49613,-0.814501 7.37199,-2.026459 21.9339,-4.524102 10.93967,-1.876359 29.5384,-5.086014 41.33052,-7.132566 25.29744,-4.390435 28.65581,-4.622149 32.07614,-2.213105 1.21029,0.85244 2.76596,2.596073 3.45705,3.874736 l 1.25652,2.324841 -0.33554,12.657473 c -0.18454,6.961608 -0.88068,27.1915414 -1.54697,44.955404 -1.29392,34.497274 -1.31269,34.671084 -4.06313,37.619707 -2.20013,2.35867 -4.85732,3.311091 -8.64121,3.097278 -4.61052,-0.260517 -7.1023,-1.869043 -9.04433,-5.838401 l -1.40893,-2.879749 1.02794,-27.757017 c 0.56537,-15.2663566 0.96208,-27.8358086 0.88158,-27.9321146 -0.19873,-0.237733 1.21301,-1.837335 -42.7866,48.4801466 -40.40403,46.205623 -40.69802,46.513545 -45.00914,47.14383 -0.85245,0.124627 -2.36359,0.07159 -3.35811,-0.117843 z"
       id="path8" /></g></svg>
