<?xml version="1.0" encoding="UTF-8" standalone="no"?>
<!-- Created with Inkscape (http://www.inkscape.org/) -->

<svg
   width="80"
   height="80"
   viewBox="0 0 21.166667 21.166666"
   version="1.1"
   id="svg1"
   xml:space="preserve"
   inkscape:version="1.4.4 (dcaf3e7d9e, 2026-05-05)"
   sodipodi:docname="undo.svg"
   xmlns:inkscape="http://www.inkscape.org/namespaces/inkscape"
   xmlns:sodipodi="http://sodipodi.sourceforge.net/DTD/sodipodi-0.dtd"
   xmlns:xlink="http://www.w3.org/1999/xlink"
   xmlns="http://www.w3.org/2000/svg"
   xmlns:svg="http://www.w3.org/2000/svg"><sodipodi:namedview
     id="namedview1"
     pagecolor="#a9a9a9"
     bordercolor="#000000"
     borderopacity="0.25"
     inkscape:showpageshadow="2"
     inkscape:pageopacity="0.0"
     inkscape:pagecheckerboard="true"
     inkscape:deskcolor="#d1d1d1"
     inkscape:document-units="mm"
     inkscape:zoom="4.906885"
     inkscape:cx="66.02967"
     inkscape:cy="65.010694"
     inkscape:window-width="1920"
     inkscape:window-height="944"
     inkscape:window-x="0"
     inkscape:window-y="0"
     inkscape:window-maximized="1"
     inkscape:current-layer="g6" /><defs
     id="defs1"><color-profile
       name="Agfa-:-Swop-Standard"
       xlink:href="file:///WINDOWS/system32/spool/drivers/color/RSWOP.icm"
       id="color-profile1" /><inkscape:path-effect
       effect="powerstroke"
       id="path-effect20"
       is_visible="true"
       lpeversion="1.3"
       scale_width="1"
       interpolator_type="CentripetalCatmullRom"
       interpolator_beta="0.75"
       start_linecap_type="peak"
       end_linecap_type="peak"
       offset_points="66.443034,1.1624209"
       linejoin_type="spiro"
       miter_limit="4"
       not_jump="true"
       sort_points="true"
       message="" /><inkscape:path-effect
       effect="simplify"
       id="path-effect19"
       is_visible="true"
       lpeversion="1.3"
       threshold="0.012"
       steps="1"
       smooth_angles="0"
       helper_size="0"
       simplify_individual_paths="false"
       simplify_just_coalesce="false"
       step="1" /><inkscape:path-effect
       effect="powerstroke"
       id="path-effect18"
       is_visible="true"
       lpeversion="1.3"
       scale_width="1"
       interpolator_type="CentripetalCatmullRom"
       interpolator_beta="0.75"
       start_linecap_type="peak"
       end_linecap_type="peak"
       offset_points="35.443661,1.1624209"
       linejoin_type="spiro"
       miter_limit="4"
       not_jump="true"
       sort_points="true"
       message="" /><inkscape:path-effect
       effect="simplify"
       id="path-effect17"
       is_visible="true"
       lpeversion="1.3"
       threshold="0.012"
       steps="1"
       smooth_angles="0"
       helper_size="0"
       simplify_individual_paths="false"
       simplify_just_coalesce="false"
       step="1" /><inkscape:path-effect
       effect="powerstroke"
       id="path-effect16"
       is_visible="true"
       lpeversion="1.3"
       scale_width="1"
       interpolator_type="CentripetalCatmullRom"
       interpolator_beta="0.75"
       start_linecap_type="peak"
       end_linecap_type="peak"
       offset_points="46.44406,1.1624209"
       linejoin_type="spiro"
       miter_limit="4"
       not_jump="true"
       sort_points="true"
       message="" /><inkscape:path-effect
       effect="simplify"
       id="path-effect15"
       is_visible="true"
       lpeversion="1.3"
       threshold="0.012"
       steps="1"
       smooth_angles="0"
       helper_size="0"
       simplify_individual_paths="false"
       simplify_just_coalesce="false"
       step="1" /><inkscape:path-effect
       effect="powerstroke"
       id="path-effect14"
       is_visible="true"
       lpeversion="1.3"
       scale_width="1"
       interpolator_type="CentripetalCatmullRom"
       interpolator_beta="0.75"
       start_linecap_type="peak"
       end_linecap_type="peak"
       offset_points="35.592547,2.3248418"
       linejoin_type="spiro"
       miter_limit="4"
       not_jump="true"
       sort_points="true"
       message="" /><inkscape:path-effect
       effect="simplify"
       id="path-effect13"
       is_visible="true"
       lpeversion="1.3"
       threshold="0.012"
       steps="1"
       smooth_angles="0"
       helper_size="0"
       simplify_individual_paths="false"
       simplify_just_coalesce="false"
       step="1" /></defs><g
     inkscape:label="Camada 1"
     inkscape:groupmode="layer"
     id="layer1"><g
       id="g4"
       transform="matrix(1.1942143,0,0,1.1942143,-62.402238,14.626522)"><g
         id="g5"
         transform="matrix(1.0772136,0,0,1.0772136,-10.020627,-7.6230251)"><g
           id="g12"
           transform="translate(4.2412682,2.8397611)"><g
             id="g13"><path
               style="fill:#ffffff;stroke:none;stroke-width:22.6772;stroke-linecap:round;stroke-linejoin:round;stroke-dasharray:none;stroke-dashoffset:0"
               d="M 209.81691,489.95708 V 625.99222"
               id="path17" /><g
               id="g6"
               transform="matrix(1.1987635,0,0,1.1987635,-26.476979,-23.009378)"><path
                 d="m 71.431843,19.469346 c 0.993603,-0.599218 1.293873,-0.68113 1.599745,-0.436403 0.318958,0.255198 0.367173,0.663205 0.113774,0.962797 -0.14511,0.171563 -2.924628,1.905903 -3.244572,2.024522 -0.357259,0.132454 -0.506627,0.07869 -0.773757,-0.278488 -0.34734,-0.464431 -1.896471,-3.044207 -1.915824,-3.190432 -0.0467,-0.352853 0.16825,-0.658915 0.523886,-0.745948 0.415936,-0.101791 0.556834,0.0127 1.198441,0.973832 0.262489,0.393211 0.485533,0.731979 0.640527,0.71429 0.167172,-0.42974 0.425008,-1.298665 0.649332,-1.744116 0.236618,-0.469859 0.706683,-1.076489 1.16172,-1.499228 0.65013,-0.603984 1.566369,-1.058511 2.523587,-1.2519 0.506895,-0.10241 1.461525,-0.100981 1.950258,0.0029 1.081787,0.229978 1.906649,0.674211 2.670823,1.438384 0.751252,0.751253 1.236986,1.642051 1.45634,2.670824 0.08247,0.386799 0.08247,1.602764 0,1.989563 -0.341262,1.600513 -1.372779,2.946714 -2.810871,3.668383 -0.628747,0.31552 -1.294248,0.487517 -2.011061,0.519752 -0.412822,0.01857 -0.429838,0.01679 -0.536866,-0.05607 -0.207259,-0.141093 -0.276057,-0.393948 -0.159292,-0.585451 0.10588,-0.173647 0.186003,-0.203147 0.720803,-0.265395 1.05118,-0.122351 1.705027,-0.387253 2.424309,-0.982194 0.629673,-0.520822 1.091052,-1.198874 1.356972,-1.994231 0.156652,-0.468538 0.182187,-0.693281 0.165427,-1.455928 -0.01334,-0.606863 -0.02203,-0.68948 -0.09987,-0.948959 -0.430555,-1.43523 -1.479833,-2.535175 -2.829081,-2.965687 -0.511118,-0.163086 -0.713558,-0.192387 -1.326622,-0.192012 -0.592222,3.56e-4 -0.863179,0.03979 -1.326376,0.192984 -0.969831,0.320766 -1.830755,1.021471 -2.362162,1.922563 -0.258831,0.438891 -0.51112,1.145049 -0.447239,1.722635 z"
                 style="fill:#ffffff;stroke:#ffffff;stroke-width:0.896583;stroke-linecap:round;stroke-dasharray:none"
                 id="path1"
                 sodipodi:nodetypes="ssssccsscssssssssssssssssscsccs" /></g></g></g></g></g><path
       style="fill:none;fill-opacity:1;stroke:none;stroke-width:10.6418;stroke-linecap:round;stroke-linejoin:round;stroke-dasharray:none;stroke-opacity:1"
       d="m -233.25971,-30.014894 c -3.04178,-0.98751 -4.57577,-3.55889 -3.87234,-6.49112 0.29386,-1.22495 1.67898,-2.87302 20.32639,-24.1851 11.00607,-12.57882 19.94903,-22.93258 19.87325,-23.00836 -0.0758,-0.0758 -6.10051,0.87884 -13.38828,2.12138 -11.98037,2.0426 -13.35714,2.22997 -14.36298,1.9547 -1.29962,-0.35566 -2.92117,-1.72726 -3.51065,-2.9695 -0.45715,-0.96336 -0.54803,-3.12065 -0.17302,-4.10701 0.33069,-0.86977 1.75375,-2.44913 2.60198,-2.88777 1.09006,-0.56369 43.08475,-7.67497 44.17048,-7.47973 1.37647,0.24753 2.7566,1.1307 3.54519,2.26863 0.58332,0.84174 0.72807,1.36742 0.80702,2.9308 0.14315,2.8348 -1.22712,41.07623 -1.52619,42.59298 -1.01805,5.16298 -8.13376,5.71808 -10.1903,0.79495 -0.38317,-0.91728 -0.3846,-1.93788 -0.0176,-12.52832 0.21975,-6.34133 0.46306,-12.44146 0.54067,-13.55584 0.0787,-1.12959 0.0403,-1.98688 -0.0868,-1.93737 -0.12537,0.0488 -9.19093,10.32326 -20.1457,22.83207 -14.44581,16.49508 -20.17654,22.86668 -20.85971,23.19246 -1.13081,0.53925 -2.84133,0.7511 -3.7314,0.46215 z"
       id="path7" /><path
       style="fill:none;fill-opacity:1;stroke:none;stroke-width:21.2836;stroke-linecap:round;stroke-linejoin:round;stroke-dasharray:none;stroke-opacity:1"
       d="m -272.91017,92.409081 c -3.58907,-0.683654 -6.26143,-2.720464 -7.94736,-6.057283 -1.02441,-2.027542 -1.09182,-6.818307 -0.12781,-9.083302 0.38916,-0.91435 19.1066,-22.680443 41.59431,-48.369092 22.4877,-25.6886496 40.82615,-46.761199 40.75211,-46.827887 -0.074,-0.06669 -12.45629,1.977403 -27.5161,4.542425 -30.31171,5.1627644 -29.87704,5.1368984 -33.83936,2.013556 -5.97462,-4.709565 -5.26646,-14.394215 1.31452,-17.976935 1.49613,-0.814501 7.37199,-2.026459 21.9339,-4.524102 10.93967,-1.876359 29.5384,-5.086014 41.33052,-7.132566 25.29744,-4.390435 28.65581,-4.622149 32.07614,-2.213105 1.21029,0.85244 2.76596,2.596073 3.45705,3.874736 l 1.25652,2.324841 -0.33554,12.657473 c -0.18454,6.961608 -0.88068,27.1915414 -1.54697,44.955404 -1.29392,34.497274 -1.31269,34.671084 -4.06313,37.619707 -2.20013,2.35867 -4.85732,3.311091 -8.64121,3.097278 -4.61052,-0.260517 -7.1023,-1.869043 -9.04433,-5.838401 l -1.40893,-2.879749 1.02794,-27.757017 c 0.56537,-15.2663566 0.96208,-27.8358086 0.88158,-27.9321146 -0.19873,-0.237733 1.21301,-1.837335 -42.7866,48.4801466 -40.40403,46.205623 -40.69802,46.513545 -45.00914,47.14383 -0.85245,0.124627 -2.36359,0.07159 -3.35811,-0.117843 z"
       id="path8" /></g></svg>
